<svg xmlns="http://www.w3.org/2000/svg" viewBox="0 0 1200 675" role="img" aria-labelledby="title desc">
  <title id="title">School festival order management system</title>
  <desc id="desc">Order entry and kitchen status screens synchronized through a database.</desc>
  <defs>
    <linearGradient id="bg" x1="0" y1="0" x2="1" y2="1">
      <stop offset="0" stop-color="#fff7ea"/>
      <stop offset="1" stop-color="#f2eadf"/>
    </linearGradient>
    <filter id="shadow" x="-20%" y="-20%" width="140%" height="140%">
      <feDropShadow dx="0" dy="12" stdDeviation="14" flood-color="#5f4530" flood-opacity=".18"/>
    </filter>
  </defs>
  <rect width="1200" height="675" fill="url(#bg)"/>
  <g filter="url(#shadow)">
    <rect x="92" y="90" width="410" height="495" rx="28" fill="#fff" stroke="#372f2a" stroke-width="6"/>
    <rect x="698" y="90" width="410" height="495" rx="28" fill="#fff" stroke="#372f2a" stroke-width="6"/>
  </g>
  <g font-family="Arial, sans-serif" fill="#372f2a">
    <text x="132" y="150" font-size="33" font-weight="700">ORDER</text>
    <text x="738" y="150" font-size="33" font-weight="700">KITCHEN</text>
  </g>
  <rect x="132" y="190" width="330" height="84" rx="16" fill="#ef6b58"/>
  <rect x="132" y="294" width="330" height="84" rx="16" fill="#f3cc4d"/>
  <rect x="132" y="426" width="330" height="104" rx="16" fill="#372f2a"/>
  <g font-family="Arial, sans-serif" font-weight="700" text-anchor="middle">
    <text x="297" y="242" font-size="27" fill="#fff">APPLE  +1</text>
    <text x="297" y="346" font-size="27" fill="#372f2a">BANANA  +1</text>
    <text x="297" y="488" font-size="27" fill="#fff">CONFIRM</text>
  </g>
  <g>
    <rect x="738" y="188" width="330" height="92" rx="17" fill="#ffd9d4" stroke="#ef6b58" stroke-width="6"/>
    <rect x="738" y="302" width="330" height="92" rx="17" fill="#fff2b8" stroke="#f3cc4d" stroke-width="6"/>
    <rect x="738" y="416" width="330" height="92" rx="17" fill="#ffd9d4" stroke="#ef6b58" stroke-width="6"/>
    <g font-family="Arial, sans-serif" font-weight="700" fill="#372f2a">
      <text x="770" y="230" font-size="24">APPLE #12</text>
      <text x="770" y="344" font-size="24">BANANA #08</text>
      <text x="770" y="458" font-size="24">APPLE #13</text>
    </g>
    <g fill="#372f2a">
      <rect x="946" y="210" width="88" height="42" rx="11"/>
      <rect x="946" y="324" width="88" height="42" rx="11"/>
      <rect x="946" y="438" width="88" height="42" rx="11"/>
    </g>
    <g font-family="Arial, sans-serif" font-weight="700" fill="#fff" text-anchor="middle">
      <text x="990" y="238" font-size="17">SERVE</text>
      <text x="990" y="352" font-size="17">SERVE</text>
      <text x="990" y="466" font-size="17">SERVE</text>
    </g>
  </g>
  <g fill="none" stroke="#4b9d8d" stroke-width="8" stroke-linecap="round">
    <path d="M530 280c44-52 96-52 140 0"/>
    <path d="M530 395c44 52 96 52 140 0"/>
  </g>
  <circle cx="600" cy="337" r="54" fill="#4b9d8d"/>
  <g fill="#fff">
    <circle cx="581" cy="337" r="7"/>
    <circle cx="600" cy="337" r="7"/>
    <circle cx="619" cy="337" r="7"/>
  </g>
</svg>
