<svg xmlns="http://www.w3.org/2000/svg" viewBox="0 0 1200 675">
  <rect width="1200" height="675" fill="#172554"/>
  <text x="70" y="100" fill="#eff6ff" font-family="sans-serif" font-size="58" font-weight="700">AI生成人生ゲーム</text>
  <text x="73" y="145" fill="#93c5fd" font-family="sans-serif" font-size="23">LLM-generated story on a validated DAG board</text>
  <g fill="#1e3a8a" stroke="#60a5fa" stroke-width="5">
    <circle cx="130" cy="355" r="48"/><circle cx="350" cy="245" r="48"/><circle cx="350" cy="465" r="48"/><circle cx="610" cy="210" r="48"/><circle cx="610" cy="355" r="48"/><circle cx="610" cy="500" r="48"/><circle cx="880" cy="355" r="48"/><circle cx="1080" cy="355" r="48"/>
  </g>
  <g stroke="#93c5fd" stroke-width="7" fill="none" marker-end="url(#a)">
    <path d="M178 335L300 270"/><path d="M178 375L300 440"/><path d="M398 245L560 215"/><path d="M398 275L560 335"/><path d="M398 445L560 375"/><path d="M398 465L560 495"/><path d="M658 225L835 330"/><path d="M658 355H830"/><path d="M658 485L835 380"/><path d="M928 355H1030"/>
  </g>
  <g fill="#f8fafc" font-family="sans-serif" text-anchor="middle" font-size="20" font-weight="700">
    <text x="130" y="362">START</text><text x="350" y="252">choice</text><text x="350" y="472">free text</text><text x="610" y="217">event</text><text x="610" y="362">story</text><text x="610" y="507">item</text><text x="880" y="362">merge</text><text x="1080" y="362">GOAL</text>
  </g>
  <defs><marker id="a" markerWidth="12" markerHeight="12" refX="10" refY="5" orient="auto"><path d="M0 0L10 5L0 10Z" fill="#93c5fd"/></marker></defs>
</svg>
