<svg xmlns="http://www.w3.org/2000/svg" viewBox="0 0 1200 675" role="img" aria-labelledby="title desc">
  <title id="title">Microcontroller workshop materials</title>
  <desc id="desc">A Raspberry Pi Pico board connecting lessons, sensors, and a servo.</desc>
  <defs>
    <linearGradient id="bg" x1="0" y1="0" x2="1" y2="1">
      <stop offset="0" stop-color="#eef8f4"/>
      <stop offset="1" stop-color="#dcebea"/>
    </linearGradient>
    <filter id="shadow" x="-20%" y="-20%" width="140%" height="140%">
      <feDropShadow dx="0" dy="12" stdDeviation="16" flood-color="#173d35" flood-opacity=".16"/>
    </filter>
  </defs>
  <rect width="1200" height="675" fill="url(#bg)"/>
  <g fill="none" stroke="#70a69b" stroke-width="5" stroke-linecap="round">
    <path d="M310 216H170v-64"/>
    <path d="M310 337H145"/>
    <path d="M310 458H170v68"/>
    <path d="M890 216h140v-64"/>
    <path d="M890 337h165"/>
    <path d="M890 458h140v68"/>
  </g>
  <g filter="url(#shadow)">
    <rect x="310" y="112" width="580" height="452" rx="42" fill="#fff" stroke="#215e52" stroke-width="7"/>
    <rect x="440" y="175" width="320" height="325" rx="28" fill="#207b69"/>
    <rect x="487" y="219" width="226" height="150" rx="16" fill="#163b35"/>
    <circle cx="600" cy="427" r="32" fill="#dff4ed"/>
    <g fill="#d9a840">
      <rect x="350" y="155" width="54" height="16" rx="8"/>
      <rect x="350" y="204" width="54" height="16" rx="8"/>
      <rect x="350" y="253" width="54" height="16" rx="8"/>
      <rect x="350" y="302" width="54" height="16" rx="8"/>
      <rect x="350" y="351" width="54" height="16" rx="8"/>
      <rect x="350" y="400" width="54" height="16" rx="8"/>
      <rect x="350" y="449" width="54" height="16" rx="8"/>
      <rect x="350" y="498" width="54" height="16" rx="8"/>
      <rect x="796" y="155" width="54" height="16" rx="8"/>
      <rect x="796" y="204" width="54" height="16" rx="8"/>
      <rect x="796" y="253" width="54" height="16" rx="8"/>
      <rect x="796" y="302" width="54" height="16" rx="8"/>
      <rect x="796" y="351" width="54" height="16" rx="8"/>
      <rect x="796" y="400" width="54" height="16" rx="8"/>
      <rect x="796" y="449" width="54" height="16" rx="8"/>
      <rect x="796" y="498" width="54" height="16" rx="8"/>
    </g>
  </g>
  <g fill="#173d35" font-family="Arial, sans-serif" font-weight="700" text-anchor="middle">
    <text x="600" y="278" font-size="46">PICO</text>
    <text x="600" y="327" font-size="25" fill="#9fd3c8">PLATFORMIO</text>
    <text x="152" y="125" font-size="24">CIRCUITS</text>
    <text x="144" y="320" font-size="24">SENSORS</text>
    <text x="152" y="576" font-size="24">CONTROL</text>
    <text x="1048" y="125" font-size="24">DOCS</text>
    <text x="1058" y="320" font-size="24">CODE</text>
    <text x="1048" y="576" font-size="24">COMMUNITY</text>
  </g>
</svg>
